<?xml version="1.0" encoding="UTF-8" standalone="no"?>
<svg
   xmlns:dc="http://purl.org/dc/elements/1.1/"
   xmlns:cc="http://creativecommons.org/ns#"
   xmlns:rdf="http://www.w3.org/1999/02/22-rdf-syntax-ns#"
   xmlns:svg="http://www.w3.org/2000/svg"
   xmlns="http://www.w3.org/2000/svg"
   viewBox="0 0 1661.9067 939.96002"
   height="939.96002"
   width="1661.9067"
   xml:space="preserve"
   id="svg2"
   version="1.1"><metadata
     id="metadata8"><rdf:RDF><cc:Work
         rdf:about=""><dc:format>image/svg+xml</dc:format><dc:type
           rdf:resource="http://purl.org/dc/dcmitype/StillImage" /></cc:Work></rdf:RDF></metadata><defs
     id="defs6" /><g
     transform="matrix(1.3333333,0,0,-1.3333333,0,939.96)"
     id="g10"><g
       transform="scale(0.1)"
       id="g12"><path
         id="path14"
         style="fill:#503a2d;fill-opacity:1;fill-rule:nonzero;stroke:none"
         d="m 581.348,1243.22 v 535.82 H 775.93 V 791.77 L 193.98,1346.18 V 810.352 L 0,810.352 V 1797 l 581.348,-553.78" /><path
         id="path16"
         style="fill:#503a2d;fill-opacity:1;fill-rule:nonzero;stroke:none"
         d="m 1571.27,1502.46 c -57.48,-58.27 -86.21,-127.53 -86.21,-207.74 0,-81.05 28.73,-150.29 86.21,-207.78 57.06,-57.06 126.32,-85.62 207.76,-85.62 80.22,0 149.27,28.56 207.14,85.62 57.88,57.11 86.81,126.32 86.81,207.78 0,80.62 -28.93,149.85 -86.81,207.74 -57.48,57.46 -126.53,86.21 -207.14,86.21 -81.83,0 -151.09,-28.75 -207.76,-86.21 z m 553.81,137.69 c 96.19,-96.17 144.29,-211.75 144.29,-346.63 0,-135.32 -48.1,-250.68 -144.29,-346.051 -95.8,-95.028 -211.15,-142.508 -346.05,-142.508 -135.33,0.41 -250.67,47.891 -346.07,142.508 -95.79,95.781 -143.68,211.131 -143.68,346.051 0,134.5 47.89,250.05 143.68,346.63 96.2,96.21 211.55,144.29 346.07,144.29 134.5,0 249.85,-48.08 346.05,-144.29" /><path
         id="path18"
         style="fill:#503a2d;fill-opacity:1;fill-rule:nonzero;stroke:none"
         d="m 3027.62,1502.46 c -57.48,-58.27 -86.21,-127.53 -86.21,-207.74 0,-81.05 28.73,-150.29 86.21,-207.78 57.07,-57.06 126.32,-85.62 207.75,-85.62 80.23,0 149.28,28.56 207.15,85.62 57.88,57.11 86.81,126.32 86.81,207.78 0,80.62 -28.93,149.85 -86.81,207.74 -57.48,57.46 -126.53,86.21 -207.15,86.21 -81.83,0 -151.07,-28.75 -207.75,-86.21 z m 553.8,137.69 c 96.2,-96.17 144.29,-211.75 144.29,-346.63 0,-135.32 -48.09,-250.68 -144.29,-346.051 -95.79,-95.028 -211.15,-142.508 -346.05,-142.508 -135.32,0.41 -250.66,47.891 -346.06,142.508 -95.79,95.781 -143.68,211.131 -143.68,346.051 0,134.5 47.89,250.05 143.68,346.63 96.2,96.21 211.54,144.29 346.06,144.29 134.5,0 249.85,-48.08 346.05,-144.29" /><path
         id="path20"
         style="fill:#503a2d;fill-opacity:1;fill-rule:nonzero;stroke:none"
         d="m 4698.91,1453.34 c 0,35.14 -12.77,66.09 -38.31,92.82 -25.17,24.48 -72.97,38.32 -119.74,38.32 h -108.98 v -266.44 h 74.85 v -0.59 h 64.67 c 70.67,0 127.51,62.33 127.51,135.89 z m -461,323.31 h 314.92 c 107.46,0 194.34,-40.55 252.66,-98.18 58.74,-58.76 93.39,-112.35 93.39,-219.11 v -25.17 c 0,-65.06 -20.35,-126.33 -61.06,-183.8 -33.9,-47.46 -60.74,-67.63 -115.55,-89.2 l 224.51,-349.639 h -237.1 L 4432.5,1238.43 V 811.551 h -193.99 l -0.6,965.099" /><path
         id="path22"
         style="fill:#503a2d;fill-opacity:1;fill-rule:nonzero;stroke:none"
         d="m 5715.75,1584.48 h -62.88 v -579.55 h 64.66 c 174,0 287.39,115.49 287.39,289.79 0,172.69 -115.35,289.76 -289.17,289.76 z m 0.6,192.17 c 151.6,0 270.27,-60.21 352.63,-141.89 86.22,-86.61 129.32,-200.46 129.32,-341.56 0,-141.09 -43.1,-254.55 -129.32,-340.368 C 5974,858.648 5856.46,811.551 5716.35,811.551 H 5459.5 v 964.519 h 256.85 v 0.58" /><path
         id="path24"
         style="fill:#503a2d;fill-opacity:1;fill-rule:nonzero;stroke:none"
         d="m 7293.57,1779.04 v -193.35 h -387.95 v -194.6 h 290.97 v -193.36 h -290.97 v -194.6 h 387.95 V 810.352 h -581.96 v 968.688 h 581.96" /><path
         id="path26"
         style="fill:#503a2d;fill-opacity:1;fill-rule:nonzero;stroke:none"
         d="m 8267.86,1453.34 c 0,35.14 -12.76,66.09 -38.31,92.82 -25.17,24.48 -72.96,38.32 -119.74,38.32 h -108.96 v -266.44 h 74.84 v -0.59 h 64.66 c 70.69,0 127.51,62.33 127.51,135.89 z m -460.99,323.31 h 314.91 c 107.48,0 194.35,-40.55 252.67,-98.18 58.76,-58.76 93.4,-112.35 93.4,-219.11 v -25.17 c 0,-65.06 -20.35,-126.33 -61.06,-183.8 -33.91,-47.46 -60.76,-67.63 -115.56,-89.2 l 224.51,-349.639 h -237.08 l -277.2,426.879 V 811.551 h -193.98 l -0.61,965.099" /><path
         id="path28"
         style="fill:#503a2d;fill-opacity:1;fill-rule:nonzero;stroke:none"
         d="M 9222.45,1776.65 V 1004.32 H 9610.4 V 811.551 h -581.96 v 965.099 h 194.01" /><path
         id="path30"
         style="fill:#503a2d;fill-opacity:1;fill-rule:nonzero;stroke:none"
         d="m 10309.9,1502.46 c -57.5,-58.27 -86.2,-127.53 -86.2,-207.74 0,-81.05 28.7,-150.29 86.2,-207.78 57,-57.06 126.3,-85.62 207.7,-85.62 80.2,0 149.3,28.56 207.2,85.62 57.8,57.11 86.8,126.32 86.8,207.78 0,80.62 -29,149.85 -86.8,207.74 -57.5,57.46 -126.5,86.21 -207.2,86.21 -81.8,0 -151.1,-28.75 -207.7,-86.21 z m 553.8,137.69 c 96.2,-96.17 144.3,-211.75 144.3,-346.63 0,-135.32 -48.1,-250.68 -144.3,-346.051 -95.8,-95.028 -211.2,-142.508 -346.1,-142.508 -135.3,0.41 -250.6,47.891 -346,142.508 -95.8,95.781 -143.7,211.131 -143.7,346.051 0,134.5 47.9,250.05 143.7,346.63 96.1,96.21 211.5,144.29 346,144.29 134.5,0 249.9,-48.08 346.1,-144.29" /><path
         id="path32"
         style="fill:#503a2d;fill-opacity:1;fill-rule:nonzero;stroke:none"
         d="m 11766.2,1502.46 c -57.5,-58.27 -86.2,-127.53 -86.2,-207.74 0,-81.05 28.7,-150.29 86.2,-207.78 57.1,-57.06 126.3,-85.62 207.8,-85.62 80.2,0 149.3,28.56 207.1,85.62 57.9,57.11 86.8,126.32 86.8,207.78 0,80.62 -28.9,149.85 -86.8,207.74 -57.4,57.46 -126.5,86.21 -207.1,86.21 -81.9,0 -151.1,-28.75 -207.8,-86.21 z m 553.8,137.69 c 96.2,-96.17 144.3,-211.75 144.3,-346.63 0,-135.32 -48.1,-250.68 -144.3,-346.051 -95.8,-95.028 -211.1,-142.508 -346,-142.508 -135.3,0.41 -250.7,47.891 -346.1,142.508 -95.8,95.781 -143.7,211.131 -143.7,346.051 0,134.5 47.9,250.05 143.7,346.63 96.2,96.21 211.6,144.29 346.1,144.29 134.5,0 249.8,-48.08 346,-144.29" /><path
         id="path34"
         style="fill:#503a2d;fill-opacity:1;fill-rule:nonzero;stroke:none"
         d="m 1764,5.51172 c -56.29,0.17969 -104.29,19.96878 -144.09,59.41798 -39.94,39.9683 -59.92,88.0393 -59.92,144.3323 0,56.097 19.98,104.289 59.92,144.578 40.12,40.101 88.16,60.16 144.09,60.16 l -0.26,-0.988 c 62.16,0 111.56,-27.621 144.83,-59.703 l -57.68,-57.68 c -24.31,23.973 -53.18,35.961 -86.67,35.961 -33.93,0 -62.75,-11.988 -86.36,-35.961 -23.98,-24.289 -35.97,-53.149 -35.97,-86.629 0,-33.789 11.99,-62.68 35.97,-86.641 23.79,-23.7887 52.6,-35.6871 86.36,-35.6871 33.98,0 62.94,11.9765 86.91,35.9371 L 1908.8,64.9297 C 1875.77,32.1992 1826.77,5.51172 1764,5.51172" /><path
         id="path36"
         style="fill:#503a2d;fill-opacity:1;fill-rule:nonzero;stroke:none"
         d="M 2319.88,140.852 2283.2,226 2245.99,140.852 Z M 2282.93,418.988 2466.71,8.25 h -87.63 l -27.23,61.1914 H 2214.03 L 2186.83,8.25 h -87.4 l 183.5,410.738" /><path
         id="path38"
         style="fill:#503a2d;fill-opacity:1;fill-rule:nonzero;stroke:none"
         d="m 2877.53,149.832 197.01,270.406 V 8.25 h -80.89 V 175.059 L 2877.53,14.7617 2761.18,175.059 V 8.25 h -80.9 v 411.988 l 197.25,-270.406" /><path
         id="path40"
         style="fill:#503a2d;fill-opacity:1;fill-rule:nonzero;stroke:none"
         d="m 3444.38,330.602 h -60.42 V 209.262 L 3444.38,209 c 33.1,0 60.69,27.762 60.69,60.68 0,32.871 -27.71,60.922 -60.69,60.922 z M 3303.07,129.09 v 281.66 h 141.31 c 39.11,0 72.41,-13.73 99.88,-41.191 27.79,-27.649 41.71,-60.899 41.71,-99.879 0,-39.289 -13.92,-72.399 -41.71,-99.371 -27.79,-27.477 -61.09,-41.219 -99.88,-41.219 h -60.42 V 8.25 h -80.89 v 120.84" /><path
         id="path42"
         style="fill:#503a2d;fill-opacity:1;fill-rule:nonzero;stroke:none"
         d="m 3799.57,410.75 h 80.88 V 8.25 h -80.88 v 402.5" /><path
         id="path44"
         style="fill:#503a2d;fill-opacity:1;fill-rule:nonzero;stroke:none"
         d="M 4351.63,188.289 V 411.75 h 81.15 V 0 l -242.7,231.219 V 7.75 h -80.89 v 411.512 l 242.44,-230.973" /><path
         id="path46"
         style="fill:#503a2d;fill-opacity:1;fill-rule:nonzero;stroke:none"
         d="m 4850.58,413.25 c 62.13,0 111.68,-27.391 144.58,-59.68 l -57.68,-57.668 c -24.47,24.137 -53.29,36.219 -86.38,36.219 -33.8,0 -62.6,-12.082 -86.4,-36.219 -23.97,-23.961 -35.96,-52.851 -35.96,-86.64 0,-33.801 11.99,-62.68 35.96,-86.653 23.62,-23.9606 52.43,-35.9371 86.4,-35.9371 52.28,0 92.73,32.5191 110.35,70.3981 h -114.87 v 77.149 h 206.75 c 5.77,-75.231 -18.92,-129.821 -58.67,-169.2893 -40.12,-39.7891 -88.21,-59.69142 -144.31,-59.69142 -56.6,0 -104.64,19.90232 -144.1,59.69142 -39.95,39.6213 -59.92,87.7303 -59.92,144.3323 0,56.097 19.97,104.289 59.92,144.578 39.64,40.101 87.67,60.16 144.1,60.16 l 0.23,-0.75" /><path
         id="path48"
         style="fill:#503a2d;fill-opacity:1;fill-rule:nonzero;stroke:none"
         d="m 5774.25,101.398 v -0.257 c -4.67,3.98 -15.87,13.988 -33.6,29.968 -17.73,15.993 -32.17,33.211 -43.33,51.672 -7.32,-5.312 -14.55,-11.57 -21.73,-18.711 -7.13,-7.148 -10.46,-17.75 -9.97,-31.711 0,-14.867 9.68,-29.98 17.73,-37.4684 7.81,-7.6523 20.96,-11.4804 39.46,-11.4804 15.28,0 45.33,8.8593 51.44,17.9878 z m -37.21,231.711 c -17.82,0 -28.23,-7.988 -31.24,-23.98 -0.81,-4.348 2.01,-12.777 8.51,-25.34 14.33,-27.758 11.88,-24.41 29.95,-48.687 14.94,-20.082 32.66,-36.27 52.82,-58.063 9.41,-10.148 16.76,-17.547 22.1,-22.219 3.53,16.821 3.09,33.59 3.99,54.442 l 75.65,1 c -1.03,-41.371 -3.32,-74.43 -16.71,-104.114 14.4,-9.1089 37.32,-24.9878 58.9,-24.2378 L 5940.79,7 c -39.32,0 -68.86,17.5586 -92.28,31.582 -4.57,2.7696 -8.6,5.7071 -12.09,8.8594 -16.05,-18.4219 -33.59,-28.6016 -62.44,-35.9609 -18.98,-4.80081 -36.13,-7.21878 -51.44,-7.21878 -37.44,0 -69.17,12.64848 -95.12,37.95708 -25.81,24.9726 -38.7,55.4101 -38.7,91.3832 0.5,23.32 6.39,42.168 17.74,56.687 11.3,14.481 23.21,27.723 35.68,39.703 1.17,1.129 3.42,2.969 6.73,5.477 -11.54,15.672 -25.18,49.211 -25.94,74.16 0,32.223 14.32,52.523 30.71,68.91 15.77,15.781 51.66,36.441 83.4,36.441 57.06,0 101.09,-42.179 111.85,-90.371 l -80.4,-16.988 c -3.14,13.828 -15.22,25.488 -31.45,25.488" /><path
         id="path50"
         style="fill:#503a2d;fill-opacity:1;fill-rule:nonzero;stroke:none"
         d="M 6571.55,410.75 V 88.6484 h 161.81 V 8.25 h -242.7 v 402.5 h 80.89" /><path
         id="path52"
         style="fill:#503a2d;fill-opacity:1;fill-rule:nonzero;stroke:none"
         d="M 7166,167.301 V 410.75 h 81.39 V 167.059 c 0,-44.93 -15.9,-83.309 -47.68,-115.1293 -31.96,-31.6094 -70.25,-47.41798 -114.87,-47.41798 -45.1,0 -83.57,15.80858 -115.36,47.41798 -31.78,31.8203 -47.66,70.1993 -47.66,115.1293 V 410.75 h 81.37 V 167.301 c 0,-43.891 37.15,-80.8791 81.39,-80.8791 43.83,0 81.42,37.2501 81.42,80.8791" /><path
         id="path54"
         style="fill:#503a2d;fill-opacity:1;fill-rule:nonzero;stroke:none"
         d="M 7718.39,188.289 V 411.75 h 81.16 V 0 l -242.7,231.219 V 7.75 h -80.9 v 411.512 l 242.44,-230.973" /><path
         id="path56"
         style="fill:#503a2d;fill-opacity:1;fill-rule:nonzero;stroke:none"
         d="m 8217.09,5.51172 c -56.24,0.17969 -104.27,19.96878 -144.04,59.41798 -39.94,39.9683 -59.92,88.0393 -59.92,144.3323 0,56.097 19.98,104.289 59.92,144.578 40.09,40.101 88.12,60.16 144.04,60.16 l -0.22,-0.988 c 62.14,0 111.53,-27.621 144.81,-59.703 L 8304,295.629 c -24.29,23.973 -53.2,35.961 -86.64,35.961 -33.97,0 -62.75,-11.988 -86.39,-35.961 C 8106.99,271.34 8095,242.48 8095,209 c 0,-33.789 11.99,-62.68 35.97,-86.641 23.81,-23.7887 52.59,-35.6871 86.39,-35.6871 33.95,0 62.93,11.9765 86.9,35.9371 l 57.68,-57.6793 C 8328.91,32.1992 8279.88,5.51172 8217.09,5.51172" /><path
         id="path58"
         style="fill:#503a2d;fill-opacity:1;fill-rule:nonzero;stroke:none"
         d="M 8656.17,410.75 V 249.699 h 134.57 V 410.75 h 80.66 V 8.25 h -80.66 V 169.539 H 8656.17 V 8.25 h -80.66 v 402.5 h 80.66" /><path
         id="path60"
         style="fill:#503a2d;fill-opacity:1;fill-rule:nonzero;stroke:none"
         d="m 9288.99,5.51172 c -56.28,0.17969 -104.27,19.96878 -144.09,59.41798 -39.95,39.9683 -59.92,88.0393 -59.92,144.3323 0,56.097 19.97,104.289 59.92,144.578 40.14,40.101 88.16,60.16 144.09,60.16 l -0.25,-0.988 c 62.16,0 111.55,-27.621 144.83,-59.703 l -57.67,-57.68 c -24.33,23.973 -53.19,35.961 -86.68,35.961 -33.94,0 -62.75,-11.988 -86.37,-35.961 -23.96,-24.289 -35.97,-53.149 -35.97,-86.629 0,-33.789 12.01,-62.68 35.97,-86.641 23.8,-23.7887 52.6,-35.6871 86.37,-35.6871 33.98,0 62.94,11.9765 86.91,35.9371 l 57.68,-57.6793 C 9400.76,32.1992 9351.79,5.51172 9288.99,5.51172" /><path
         id="path62"
         style="fill:#503a2d;fill-opacity:1;fill-rule:nonzero;stroke:none"
         d="m 9844.89,140.852 -36.7,85.148 -37.2,-85.148 z M 9807.93,418.988 9991.7,8.25 h -87.62 l -27.23,61.1914 H 9739.03 L 9711.83,8.25 h -87.4 l 183.5,410.738" /><path
         id="path64"
         style="fill:#503a2d;fill-opacity:1;fill-rule:nonzero;stroke:none"
         d="m 10448,411.75 v -80.648 h -161.8 v -81.133 h 121.3 v -80.668 h -121.3 V 7.75 h -80.9 v 404 h 242.7" /><path
         id="path66"
         style="fill:#503a2d;fill-opacity:1;fill-rule:nonzero;stroke:none"
         d="m 10904.3,411.75 v -80.648 h -161.8 v -81.133 h 121.4 v -80.668 h -121.4 V 88.1484 h 161.8 V 7.75 h -242.7 v 404 h 242.7" /><path
         id="path68"
         style="fill:#503a2d;fill-opacity:1;fill-rule:nonzero;stroke:none"
         d="m 3715.59,2478.61 v 4571.1 H 8748.72 V 6840.69 H 3924.62 V 2981.63 L 6688.56,5733.16 6836.04,5585.02 3715.59,2478.61" /><path
         id="path70"
         style="fill:#503a2d;fill-opacity:1;fill-rule:nonzero;stroke:none"
         d="M 8748.72,2478.61 5645.89,5567.38 5793.37,5715.5 8539.7,2981.63 V 6840.69 H 3715.59 v 209.02 h 5033.13 v -4571.1" /></g></g></svg>